<svg id="layer" xmlns="http://www.w3.org/2000/svg" viewBox="0 0 46.34 46.34">
    <defs>
        <style>.cls-1{fill:none;stroke:#e51515;stroke-miterlimit:10;stroke-width:3.5px;}.cls-2{fill-rule:evenodd;}
        </style>
    </defs>
    <path class="cls-1" d="M43.73,35.57a21.43,21.43,0,1,1,2.75-10.51,21.43,21.43,0,0,1-2.75,10.51"
          transform="translate(-1.89 -1.89)"/>
    <path class="cls-2"
          d="M10,11.3a1.89,1.89,0,1,1,3.3-1.84l3.3,5.76A21.59,21.59,0,0,1,25,13.5a23.36,23.36,0,0,1,8.32,1.59l3.31-5.75a1.89,1.89,0,1,1,3.3,1.84l-3.18,5.5a22.32,22.32,0,0,1,9.55,13,5.25,5.25,0,0,1,.24,2.2,2,2,0,0,1-1,1.23,4.32,4.32,0,0,1-2.45.36H7a4.32,4.32,0,0,1-2.45-.36,2.45,2.45,0,0,1-1-1.23,5.13,5.13,0,0,1,.25-2.2,22.08,22.08,0,0,1,9.3-12.85Zm8.44,14.07a2.43,2.43,0,0,1-2.32,2.45,2.35,2.35,0,0,1-2.33-2.45,2.43,2.43,0,0,1,2.33-2.44A2.51,2.51,0,0,1,18.39,25.37Zm15.79,2.45a2.35,2.35,0,0,0,2.33-2.45,2.44,2.44,0,0,0-2.33-2.44,2.45,2.45,0,0,0,0,4.89Z"
          transform="translate(-1.89 -1.89)"/>
    <line class="cls-1" x1="4.63" y1="33.94" x2="41.83" y2="12.52"/>
    <path class="cls-1" d="M7.36,37.13A21.42,21.42,0,0,1,4.5,19.06" transform="translate(-1.89 -1.89)"/>
    <path class="cls-1" d="M46.29,22.16a23.15,23.15,0,0,1,.19,2.9,21.39,21.39,0,0,1-2.75,10.52"
          transform="translate(-1.89 -1.89)"/>
</svg>